<svg xmlns="http://www.w3.org/2000/svg" viewBox="0 0 900 370" width="900" height="370" font-family="Fira Sans, Helvetica Neue, Arial, sans-serif"><rect width="900" height="370" fill="#FFFFFF"/><text x="24" y="30" font-size="21" font-weight="600" fill="#212121">What 32,010 tool calls were spent on</text><text x="178" y="76" font-size="17" text-anchor="end" font-family="Fira Code, Menlo, monospace" fill="#212121">bash</text><rect x="190" y="58" width="439.1" height="26" fill="#4285F4" rx="2"/><text x="639.1" y="77" font-size="16" fill="#595959">21,297 &#183; 67%</text><text x="178" y="122" font-size="17" text-anchor="end" font-family="Fira Code, Menlo, monospace" fill="#212121">read_file</text><rect x="190" y="104" width="191.9" height="26" fill="#0097A7" rx="2"/><text x="391.9" y="123" font-size="16" fill="#595959">9,309 &#183; 29%</text><text x="178" y="168" font-size="17" text-anchor="end" font-family="Fira Code, Menlo, monospace" fill="#212121">ls</text><rect x="190" y="150" width="14.5" height="26" fill="#78909C" rx="2"/><text x="214.5" y="169" font-size="16" fill="#595959">703 &#183; 2%</text><text x="178" y="214" font-size="17" text-anchor="end" font-family="Fira Code, Menlo, monospace" fill="#212121">write_jsonl</text><rect x="190" y="196" width="8.5" height="26" fill="#78909C" rx="2"/><text x="208.5" y="215" font-size="16" fill="#595959">412 &#183; 1%</text><text x="178" y="260" font-size="17" text-anchor="end" font-family="Fira Code, Menlo, monospace" fill="#212121">grep</text><rect x="190" y="242" width="4.3" height="26" fill="#78909C" rx="2"/><text x="204.3" y="261" font-size="16" fill="#595959">210 &#183; &#60;1%</text><text x="178" y="306" font-size="17" text-anchor="end" font-family="Fira Code, Menlo, monospace" fill="#212121">everything else</text><rect x="190" y="288" width="2.0" height="26" fill="#78909C" rx="2"/><text x="202.0" y="307" font-size="16" fill="#595959">79 &#183; &#60;1%</text><text x="24" y="356" font-size="14" fill="#595959">run-odoo-fixed-c16 &#183; week1/data/figures.json</text></svg>
